<svg xmlns="http://www.w3.org/2000/svg" xmlns:xlink="http://www.w3.org/1999/xlink" xmlns:lucid="lucid" width="1280" height="1000.23"><g transform="translate(-1004.3679208169627 540.2325192458932)" lucid:page-tab-id="0_0"><path d="M-1500-1000h4000v3000h-4000z" fill="#fff"/><path d="M1180-12a8 8 0 0 1 8-8h84a8 8 0 0 1 8 8v4.93A17.07 17.07 0 0 1 1275 5a17.07 17.07 0 0 1-12.07 5H1188a8 8 0 0 1-8-8z" fill="#fff"/><path d="M1280-20V0l-10 10h-90" stroke="#333" fill="none"/><path d="M1180-12a8 8 0 0 1 8-8h884a8 8 0 0 1 8 8v364a8 8 0 0 1-8 8h-884a8 8 0 0 1-8-8z" stroke="#333" fill="none"/><use xlink:href="#a" transform="matrix(1,0,0,1,1188,-20) translate(11.126171874999994 21.014322916666668)"/><path d="M1304.67-337.73v9.84m0 9.86v19.68m0 9.84v19.7m0 9.83v19.7m0 9.84v19.68m0 9.84v19.7m0 9.83v19.68m0 9.84v19.68m0 9.84v19.7m0 9.83v19.7m0 9.83v19.68m0 9.85V-3.1m0 9.85v19.7m0 9.83v19.68m0 9.85v19.7m0 9.83v19.7m0 9.83v19.68m0 9.85v19.67m0 9.84v19.7m0 9.84v19.7m0 9.83v19.68m0 9.85v19.68m0 9.84v19.7m0 9.83v19.68m0 9.85v19.68m0 9.84v19.7m0 9.83v19.7m0 9.83v9.84" stroke="#333" fill="none"/><path d="M1304.67-338.23l.47-.03v.54h-.95v-.54z" stroke="#333" stroke-width=".05" fill="#333"/><path d="M1304.67 459.5v.5" stroke="#333" fill="none"/><path d="M1180-252a8 8 0 0 1 8-8h84a8 8 0 0 1 8 8v4.93a17.07 17.07 0 0 1-5 12.07 17.07 17.07 0 0 1-12.07 5H1188a8 8 0 0 1-8-8z" fill="#fff"/><path d="M1280-260v20l-10 10h-90" stroke="#333" fill="none"/><path d="M1180-252a8 8 0 0 1 8-8h884a8 8 0 0 1 8 8v137.77a8 8 0 0 1-8 8h-884a8 8 0 0 1-8-8z" stroke="#333" fill="none"/><use xlink:href="#b" transform="matrix(1,0,0,1,1188,-260.0000000000001) translate(8.990885416666664 21.014322916666668)"/><path d="M1642.48-350.78v9.93m.02 9.94l.02 19.86m0 9.94l.03 19.87m0 9.94l.03 19.88m0 9.94l.03 19.87m.02 9.92l.02 19.88m0 9.93l.03 19.88m0 9.94l.03 19.88m0 9.93l.03 19.87m0 9.94l.03 19.87m0 9.94l.03 19.87m0 9.94l.02 19.87m0 9.94l.03 19.86m0 9.94l.03 19.87m0 9.93l.03 19.88m.02 9.93l.02 19.88m0 9.94l.03 19.87m0 9.93l.03 19.87m0 9.94l.03 19.87m0 9.95l.03 19.87m0 9.94l.03 19.87m0 9.93l.02 19.88m0 9.93l.03 19.88m0 9.93l.03 19.88m0 9.93l.03 19.86m.02 9.94l.02 19.87m0 9.94l.03 19.88m0 9.94l.02 9.93" stroke="#333" fill="none"/><path stroke="#333" stroke-width=".05" fill="#333"/><path d="M1643.3 454.04v.5M1980-349.78v10m0 9.98v19.98m0 10v19.98m0 10v19.97m0 10v19.97m0 10v19.98m0 10v19.97m0 10V-130m0 10V-100m0 10v19.97m0 10v19.97m0 10v19.98m0 10v19.97m0 9.98v19.98m0 10v19.98m0 10v19.97m0 10v19.98m0 10v19.98m0 10v19.97m0 10v19.97m0 10v19.98m0 10v19.97m0 10v19.97m0 10v19.98m0 10v19.97m0 10v19.97m0 10v19.98m0 10v9.98" stroke="#333" fill="none"/><path d="M1980.47-349.77h-.94v-.5h.94z" stroke="#333" stroke-width=".05" fill="#333"/><path d="M1980 459.5v.5M1326.17 40h616.46" stroke="#333" fill="none"/><path d="M1326.18 40.48h-.5v-.95h.5z" stroke="#333" stroke-width=".05" fill="#333"/><path d="M1957.38 40l-14.27 4.63.02-9.27z" stroke="#333" fill="#333"/><use xlink:href="#c" transform="matrix(1,0,0,1,1403.5560273394867,44.000147368178204) translate(0.0049999999999954525 17.22222222222222)"/><use xlink:href="#d" transform="matrix(1,0,0,1,1403.5560273394867,44.000147368178204) translate(69.24979166666667 17.22222222222222)"/><use xlink:href="#e" transform="matrix(1,0,0,1,1403.5560273394867,44.000147368178204) translate(124.86611111111111 17.22222222222222)"/><path d="M1884.96-471.28a8 8 0 0 1 8-8h174.08a8 8 0 0 1 8 8v112a8 8 0 0 1-8 8h-174.08a8 8 0 0 1-8-8z" stroke="#000" stroke-width="2" fill="#f7931a"/><use xlink:href="#f" transform="matrix(1,0,0,1,1892.9623809350767,-471.28198155664086) translate(51.74696180555556 64.08376736111111)"/><path d="M1624.37-281.55a8 8 0 0 1 8-8h24a8 8 0 0 1 8 8V412a8 8 0 0 1-8 8h-24a8 8 0 0 1-8-8z" stroke="#6db1ff" stroke-width="2" fill="#ced4db"/><path d="M1332.16-203.62h275.32M1332.18-203.62h-.52" stroke="#333" fill="none"/><path d="M1622.25-203.62l-14.27 4.64v-9.27z" stroke="#333" fill="#333"/><use xlink:href="#g" transform="matrix(1,0,0,1,1391.6203528618964,-199.61642961428197) translate(0.0049999999999954525 17.22222222222222)"/><use xlink:href="#h" transform="matrix(1,0,0,1,1391.6203528618964,-199.61642961428197) translate(73.84180555555555 17.22222222222222)"/><path d="M1547.44-471.28a8 8 0 0 1 8-8h174.08a8 8 0 0 1 8 8v112a8 8 0 0 1-8 8h-174.08a8 8 0 0 1-8-8z" stroke="#000" stroke-width="2" fill="#6db1ff"/><use xlink:href="#i" transform="matrix(1,0,0,1,1555.443571402615,-471.28198155664086) translate(31.233723958333336 64.08376736111111)"/><use xlink:href="#j" transform="matrix(1,0,0,1,1555.443571402615,-471.28198155664086) translate(70.263671875 64.08376736111111)"/><use xlink:href="#k" transform="matrix(1,0,0,1,1555.443571402615,-471.28198155664086) translate(84.521484375 64.08376736111111)"/><path d="M1299.87-476.63a8 8 0 0 1 9.6 0l85.73 64.3a4.5 4.5 0 0 1 0 7.2l-85.73 64.3a8 8 0 0 1-9.6 0l-85.74-64.3a4.5 4.5 0 0 1 0-7.2z" stroke="#000" stroke-width="2" fill="#e3fae3"/><use xlink:href="#l" transform="matrix(1,0,0,1,1214.3313828194537,-475.23251924589323) translate(65.21116319444445 75.96527777777777)"/><path d="M1284.67-281.55a8 8 0 0 1 8-8h24a8 8 0 0 1 8 8V412a8 8 0 0 1-8 8h-24a8 8 0 0 1-8-8zM1960-281.55a8 8 0 0 1 8-8h24a8 8 0 0 1 8 8V412a8 8 0 0 1-8 8h-24a8 8 0 0 1-8-8z" stroke="#6db1ff" stroke-width="2" fill="#ced4db"/><path d="M1492.67-224c0 11.05-8.96 20-20 20-11.05 0-20-8.95-20-20s8.95-20 20-20c11.04 0 20 8.95 20 20z" stroke="#000" stroke-width="2" fill="#cfe4ff"/><use xlink:href="#m" transform="matrix(1,0,0,1,1457.666666666667,-238.99999999999977) translate(10.9326171875 23.125)"/><path d="M1342.05-160h280.82" stroke="#333" fill="none"/><path d="M1327.28-160l14.27-4.63v9.26z" stroke="#333" fill="#333"/><path d="M1623.37-159.53h-.52v-.94h.52z" stroke="#333" stroke-width=".05" fill="#333"/><use xlink:href="#n" transform="matrix(1,0,0,1,1344.0957683194301,-155.99985270354284) translate(0.0049999999999954525 17.22222222222222)"/><use xlink:href="#o" transform="matrix(1,0,0,1,1344.0957683194301,-155.99985270354284) translate(64.80534722222222 17.22222222222222)"/><use xlink:href="#p" transform="matrix(1,0,0,1,1344.0957683194301,-155.99985270354284) translate(126.26368055555557 17.22222222222222)"/><use xlink:href="#q" transform="matrix(1,0,0,1,1344.0957683194301,-155.99985270354284) translate(193.5640277777778 17.22222222222222)"/><path d="M1326.17 280h280.81" stroke="#333" fill="none"/><path d="M1326.18 280.48h-.5v-.96h.5z" stroke="#333" stroke-width=".05" fill="#333"/><path d="M1621.75 280l-14.27 4.63v-9.26z" stroke="#333" fill="#333"/><use xlink:href="#r" transform="matrix(1,0,0,1,1380.43263947521,284.0001469765825) translate(36.86263888888889 17.22222222222222)"/><use xlink:href="#s" transform="matrix(1,0,0,1,1380.43263947521,284.0001469765825) translate(89.01541666666668 17.22222222222222)"/><use xlink:href="#t" transform="matrix(1,0,0,1,1380.43263947521,284.0001469765825) translate(0.0049999999999954525 38.732638888888886)"/><use xlink:href="#u" transform="matrix(1,0,0,1,1380.43263947521,284.0001469765825) translate(63.29493055555556 38.732638888888886)"/><use xlink:href="#v" transform="matrix(1,0,0,1,1380.43263947521,284.0001469765825) translate(91.7063888888889 38.732638888888886)"/><use xlink:href="#w" transform="matrix(1,0,0,1,1380.43263947521,284.0001469765825) translate(131.26368055555557 38.732638888888886)"/><path d="M1004.37-534.23a6 6 0 0 1 6-6h1268a6 6 0 0 1 6 6v48a6 6 0 0 1-6 6h-1268a6 6 0 0 1-6-6z" fill="none"/><use xlink:href="#x" transform="matrix(1,0,0,1,1004.3679208169627,-540.2325192458932) translate(556.45703125 39.700520833333336)"/><use xlink:href="#y" transform="matrix(1,0,0,1,1004.3679208169627,-540.2325192458932) translate(663.0065104166666 39.700520833333336)"/><path d="M1499.33 13.33c0 11.05-8.95 20-20 20-11.04 0-20-8.95-20-20 0-11.04 8.96-20 20-20 11.05 0 20 8.96 20 20z" stroke="#000" stroke-width="2" fill="#cfe4ff"/><use xlink:href="#z" transform="matrix(1,0,0,1,1464.3333333333335,-1.666666666666515) translate(10.9326171875 23.125)"/><path d="M1840 65.22c0 11.05-8.95 20-20 20s-20-8.95-20-20c0-11.04 8.95-20 20-20s20 8.96 20 20z" stroke="#000" stroke-width="2" fill="#cfe4ff"/><g><use xlink:href="#A" transform="matrix(1,0,0,1,1805,50.22333733953133) translate(8.9013671875 23.125)"/></g><path d="M1900 200c0 11.05-8.95 20-20 20s-20-8.95-20-20 8.95-20 20-20 20 8.95 20 20z" stroke="#000" stroke-width="2" fill="#cfe4ff"/><g><use xlink:href="#B" transform="matrix(1,0,0,1,1865,185) translate(8.8232421875 23.125)"/></g><path d="M1492.67 254.67c0 11.04-8.96 20-20 20-11.05 0-20-8.96-20-20 0-11.05 8.95-20 20-20 11.04 0 20 8.95 20 20z" stroke="#000" stroke-width="2" fill="#cfe4ff"/><g><use xlink:href="#C" transform="matrix(1,0,0,1,1457.666666666667,239.66666666666674) translate(8.5400390625 23.125)"/></g><path d="M1681.75 100h276.75" stroke="#333" fill="none"/><path d="M1667 100l14.25-4.64v9.28z" stroke="#333" fill="#333"/><path d="M1959 100.47h-.5v-.94h.5z" stroke="#333" stroke-width=".05" fill="#333"/><g><use xlink:href="#D" transform="matrix(1,0,0,1,1714.5494168116654,103.9999997596837) translate(0.0049999999999954525 17.22222222222222)"/><use xlink:href="#u" transform="matrix(1,0,0,1,1714.5494168116654,103.9999997596837) translate(55.2567361111111 17.22222222222222)"/><use xlink:href="#E" transform="matrix(1,0,0,1,1714.5494168116654,103.9999997596837) translate(83.66819444444444 17.22222222222222)"/><use xlink:href="#F" transform="matrix(1,0,0,1,1714.5494168116654,103.9999997596837) translate(123.76368055555555 17.22222222222222)"/></g><path d="M1665.87 160H1844a6 6 0 0 1 6 6v66.67a6 6 0 0 1-6 6h-162.25" stroke="#3a414a" fill="none"/><path d="M1665.88 160.47h-.5v-.94h.5z" stroke="#3a414a" stroke-width=".05" fill="#3a414a"/><path d="M1667 238.67l14.25-4.64v9.27z" stroke="#3a414a" fill="#3a414a"/><g><use xlink:href="#G" transform="matrix(1,0,0,1,1679.1875000000002,175.67186903536924) translate(0.0049999999999954525 17.22222222222222)"/><use xlink:href="#H" transform="matrix(1,0,0,1,1679.1875000000002,175.67186903536924) translate(72.54840277777778 17.22222222222222)"/><use xlink:href="#I" transform="matrix(1,0,0,1,1679.1875000000002,175.67186903536924) translate(17.131736111111124 43.034722222222214)"/><use xlink:href="#J" transform="matrix(1,0,0,1,1679.1875000000002,175.67186903536924) translate(43.29493055555557 43.034722222222214)"/><use xlink:href="#K" transform="matrix(1,0,0,1,1679.1875000000002,175.67186903536924) translate(83.39041666666668 43.034722222222214)"/></g><defs><path d="M645 0H180v-1490h484c435 0 692 280 692 742 0 466-257 748-711 748zM370-168h263c363 0 539-218 539-580 0-358-176-574-521-574H370v1154" id="L"/><path d="M628 24c-324 0-524-230-524-574 0-343 198-582 503-582 237 0 487 146 487 559v75H286c9 234 145 362 343 362 132 0 231-58 273-172l174 48C1024-91 857 24 628 24zM287-650h624c-17-190-120-322-304-322-192 0-309 151-320 322" id="M"/><path d="M158 418v-1536h174v179h20c37-59 106-193 324-193 279 0 474 222 474 576 0 356-194 580-473 580-213 0-288-135-325-197h-14v591H158zm492-555c209 0 317-186 317-421 0-232-105-413-317-413-206 0-314 166-314 413 0 249 111 421 314 421" id="N"/><path d="M613 24c-304 0-509-231-509-576 0-350 205-580 509-580 305 0 511 230 511 580 0 345-206 576-511 576zm0-161c226 0 329-195 329-415 0-222-103-419-329-419-223 0-326 196-326 419 0 220 103 415 326 415" id="O"/><path d="M538 24C308 24 148-78 108-271l171-41c32 123 123 178 257 178 156 0 256-77 256-169 0-77-54-128-164-154l-186-44c-203-48-300-148-300-305 0-192 176-326 414-326 230 0 351 112 402 269l-163 42c-31-80-94-158-238-158-133 0-233 69-233 162 0 83 57 129 188 160l169 40c203 48 298 149 298 302 0 196-179 339-441 339" id="P"/><path d="M158 0v-1118h180V0H158zm91-1301c-68 0-125-53-125-119s57-119 125-119c69 0 126 53 126 119s-57 119-126 119" id="Q"/><path d="M598-1118v154H368v674c0 100 37 144 132 144 23 0 62-6 92-12L629-6c-37 13-88 20-134 20-193 0-307-107-307-290v-688H20v-154h168v-266h180v266h230" id="R"/><g id="a"><use transform="matrix(0.008072916666666667,0,0,0.008072916666666667,0,0)" xlink:href="#L"/><use transform="matrix(0.008072916666666667,0,0,0.008072916666666667,11.931770833333335,0)" xlink:href="#M"/><use transform="matrix(0.008072916666666667,0,0,0.008072916666666667,21.570833333333336,0)" xlink:href="#N"/><use transform="matrix(0.008072916666666667,0,0,0.008072916666666667,31.694270833333338,0)" xlink:href="#O"/><use transform="matrix(0.008072916666666667,0,0,0.008072916666666667,41.60781250000001,0)" xlink:href="#P"/><use transform="matrix(0.008072916666666667,0,0,0.008072916666666667,50.33463541666668,0)" xlink:href="#Q"/><use transform="matrix(0.008072916666666667,0,0,0.008072916666666667,54.33880208333335,0)" xlink:href="#R"/></g><path d="M180 0v-1490h510c348 0 508 194 508 460 0 198-88 351-276 417L1256 0h-220L726-579c-117 2-238 0-356 1V0H180zm190-747h312c235 0 327-108 327-283 0-177-92-293-329-293H370v576" id="S"/><path d="M611 442c-248 0-391-105-460-228l146-94c47 65 117 165 314 165 178 0 307-82 307-266v-224h-17C863-141 792-18 576-18c-268 0-472-195-472-546 0-346 197-568 476-568 216 0 288 133 326 193h17v-179h175V29c0 289-215 413-487 413zm-5-620c203 0 314-146 314-390 0-237-108-403-314-403-213 0-319 180-319 403 0 230 109 390 319 390" id="T"/><path d="M158 0v-1118h174v172h12c41-113 157-188 290-188 26 0 70 2 91 3v181c-11-2-60-10-108-10-161 0-279 109-279 260V0H158" id="U"/><g id="b"><use transform="matrix(0.008072916666666667,0,0,0.008072916666666667,0,0)" xlink:href="#S"/><use transform="matrix(0.008072916666666667,0,0,0.008072916666666667,10.397916666666667,0)" xlink:href="#M"/><use transform="matrix(0.008072916666666667,0,0,0.008072916666666667,20.03697916666667,0)" xlink:href="#T"/><use transform="matrix(0.008072916666666667,0,0,0.008072916666666667,30.176562500000003,0)" xlink:href="#Q"/><use transform="matrix(0.008072916666666667,0,0,0.008072916666666667,34.18072916666667,0)" xlink:href="#P"/><use transform="matrix(0.008072916666666667,0,0,0.008072916666666667,42.90755208333334,0)" xlink:href="#R"/><use transform="matrix(0.008072916666666667,0,0,0.008072916666666667,48.15494791666667,0)" xlink:href="#M"/><use transform="matrix(0.008072916666666667,0,0,0.008072916666666667,57.79401041666667,0)" xlink:href="#U"/></g><g id="c"><use transform="matrix(0.008680555555555556,0,0,0.008680555555555556,0,0)" xlink:href="#L"/><use transform="matrix(0.008680555555555556,0,0,0.008680555555555556,12.829861111111112,0)" xlink:href="#M"/><use transform="matrix(0.008680555555555556,0,0,0.008680555555555556,23.194444444444446,0)" xlink:href="#N"/><use transform="matrix(0.008680555555555556,0,0,0.008680555555555556,34.079861111111114,0)" xlink:href="#O"/><use transform="matrix(0.008680555555555556,0,0,0.008680555555555556,44.739583333333336,0)" xlink:href="#P"/><use transform="matrix(0.008680555555555556,0,0,0.008680555555555556,54.12326388888889,0)" xlink:href="#Q"/><use transform="matrix(0.008680555555555556,0,0,0.008680555555555556,58.42881944444445,0)" xlink:href="#R"/></g><path d="M338-670V0H158v-1118h173l1 207c72-158 192-221 342-221 226 0 378 139 378 422V0H872v-695c0-172-96-275-252-275-161 0-282 109-282 300" id="V"/><path d="M471 26C259 26 90-98 90-318c0-256 228-303 435-329 202-27 287-16 287-108 0-139-79-219-234-219-161 0-248 86-283 164l-173-57c86-203 278-265 451-265 150 0 419 46 419 395V0H815v-152h-12C765-73 660 26 471 26zm31-159c199 0 310-134 310-271v-155c-30 35-226 55-295 64-131 17-246 59-246 186 0 116 97 176 231 176" id="W"/><path d="M481 0L54-1118h197c107 314 236 620 325 951 87-331 217-637 324-951h197L670 0H481" id="X"/><g id="d"><use transform="matrix(0.008680555555555556,0,0,0.008680555555555556,0,0)" xlink:href="#V"/><use transform="matrix(0.008680555555555556,0,0,0.008680555555555556,10.503472222222223,0)" xlink:href="#W"/><use transform="matrix(0.008680555555555556,0,0,0.008680555555555556,20.486111111111114,0)" xlink:href="#R"/><use transform="matrix(0.008680555555555556,0,0,0.008680555555555556,26.302083333333336,0)" xlink:href="#Q"/><use transform="matrix(0.008680555555555556,0,0,0.008680555555555556,30.607638888888893,0)" xlink:href="#X"/><use transform="matrix(0.008680555555555556,0,0,0.008680555555555556,40.251736111111114,0)" xlink:href="#M"/></g><path d="M180 0v-1490h528c311 0 458 177 458 395 0 191-114 278-244 313v14c139 9 302 137 302 371 0 225-148 397-499 397H180zm190-168h350c232 0 321-102 321-231 0-149-120-277-311-277H370v508zm0-668h328c160 0 286-101 286-255 0-129-87-231-280-231H370v486" id="Y"/><path d="M98-1322v-168h1126v168H757V0H567v-1322H98" id="Z"/><path d="M783 20c-382 0-661-292-661-764 0-473 279-766 661-766 302 0 548 182 601 489h-190c-42-204-217-313-411-313-268 0-476 208-476 590 0 381 209 588 476 588 195 0 369-110 411-313h190c-52 303-296 489-601 489" id="aa"/><g id="e"><use transform="matrix(0.008680555555555556,0,0,0.008680555555555556,0,0)" xlink:href="#Y"/><use transform="matrix(0.008680555555555556,0,0,0.008680555555555556,10.625,0)" xlink:href="#Z"/><use transform="matrix(0.008680555555555556,0,0,0.008680555555555556,21.571180555555557,0)" xlink:href="#aa"/></g><path d="M613 24c-304 0-509-231-509-576 0-350 205-580 509-580 216 0 392 114 453 309l-173 49c-33-115-133-197-280-197-223 0-326 196-326 419 0 220 103 415 326 415 150 0 252-85 285-206l172 49C1010-95 832 24 613 24" id="ab"/><g id="f"><use transform="matrix(0.010850694444444444,0,0,0.010850694444444444,0,0)" xlink:href="#Y"/><use transform="matrix(0.010850694444444444,0,0,0.010850694444444444,14.539930555555555,0)" xlink:href="#Q"/><use transform="matrix(0.010850694444444444,0,0,0.010850694444444444,19.921875,0)" xlink:href="#R"/><use transform="matrix(0.010850694444444444,0,0,0.010850694444444444,26.97482638888889,0)" xlink:href="#ab"/><use transform="matrix(0.010850694444444444,0,0,0.010850694444444444,39.670138888888886,0)" xlink:href="#O"/><use transform="matrix(0.010850694444444444,0,0,0.010850694444444444,52.994791666666664,0)" xlink:href="#Q"/><use transform="matrix(0.010850694444444444,0,0,0.010850694444444444,58.37673611111111,0)" xlink:href="#V"/></g><g id="g"><use transform="matrix(0.008680555555555556,0,0,0.008680555555555556,0,0)" xlink:href="#S"/><use transform="matrix(0.008680555555555556,0,0,0.008680555555555556,11.180555555555559,0)" xlink:href="#M"/><use transform="matrix(0.008680555555555556,0,0,0.008680555555555556,21.545138888888893,0)" xlink:href="#T"/><use transform="matrix(0.008680555555555556,0,0,0.008680555555555556,32.44791666666667,0)" xlink:href="#Q"/><use transform="matrix(0.008680555555555556,0,0,0.008680555555555556,36.75347222222223,0)" xlink:href="#P"/><use transform="matrix(0.008680555555555556,0,0,0.008680555555555556,46.137152777777786,0)" xlink:href="#R"/><use transform="matrix(0.008680555555555556,0,0,0.008680555555555556,51.77951388888889,0)" xlink:href="#M"/><use transform="matrix(0.008680555555555556,0,0,0.008680555555555556,62.14409722222222,0)" xlink:href="#U"/></g><g id="h"><use transform="matrix(0.008680555555555556,0,0,0.008680555555555556,0,0)" xlink:href="#Z"/><use transform="matrix(0.008680555555555556,0,0,0.008680555555555556,10.46875,0)" xlink:href="#U"/><use transform="matrix(0.008680555555555556,0,0,0.008680555555555556,17.161458333333336,0)" xlink:href="#W"/><use transform="matrix(0.008680555555555556,0,0,0.008680555555555556,27.144097222222225,0)" xlink:href="#V"/><use transform="matrix(0.008680555555555556,0,0,0.008680555555555556,37.64756944444444,0)" xlink:href="#P"/><use transform="matrix(0.008680555555555556,0,0,0.008680555555555556,47.03125000000001,0)" xlink:href="#W"/><use transform="matrix(0.008680555555555556,0,0,0.008680555555555556,57.0138888888889,0)" xlink:href="#ab"/><use transform="matrix(0.008680555555555556,0,0,0.008680555555555556,67.1701388888889,0)" xlink:href="#R"/><use transform="matrix(0.008680555555555556,0,0,0.008680555555555556,72.98611111111113,0)" xlink:href="#Q"/><use transform="matrix(0.008680555555555556,0,0,0.008680555555555556,77.29166666666669,0)" xlink:href="#O"/><use transform="matrix(0.008680555555555556,0,0,0.008680555555555556,87.95138888888891,0)" xlink:href="#V"/></g><path d="M657 26c-323 0-524-166-541-416h195c15 169 171 246 346 246 202 0 356-106 356-265 5-203-294-238-475-293-239-73-380-191-380-389 0-252 224-419 512-419 294 0 499 171 508 396H992c-17-145-151-228-328-228-193 0-321 102-321 242 0 156 175 211 284 241l149 41c160 44 422 134 422 412 0 244-197 432-541 432" id="ac"/><path d="M537 14c-226 0-379-139-379-422v-710h180v695c0 172 97 275 253 275 160 0 281-109 281-300v-670h181V0H879v-209C806-46 684 14 537 14" id="ad"/><g id="i"><use transform="matrix(0.010850694444444444,0,0,0.010850694444444444,0,0)" xlink:href="#ac"/><use transform="matrix(0.010850694444444444,0,0,0.010850694444444444,14.2578125,0)" xlink:href="#ad"/><use transform="matrix(0.010850694444444444,0,0,0.010850694444444444,27.39800347222222,0)" xlink:href="#Q"/></g><path d="M692-1560L212 224H46l480-1784h166" id="ae"/><use transform="matrix(0.010850694444444444,0,0,0.010850694444444444,0,0)" xlink:href="#ae" id="j"/><path d="M180 0v-1490h190v644h782v-644h190V0h-190v-678H370V0H180" id="af"/><path d="M338-670V0H158v-1490h180v566c73-149 190-208 336-208 226 0 379 139 379 422V0H872v-695c0-172-96-275-252-275-161 0-282 109-282 300" id="ag"/><g id="k"><use transform="matrix(0.010850694444444444,0,0,0.010850694444444444,0,0)" xlink:href="#af"/><use transform="matrix(0.010850694444444444,0,0,0.010850694444444444,16.514756944444443,0)" xlink:href="#W"/><use transform="matrix(0.010850694444444444,0,0,0.010850694444444444,28.993055555555554,0)" xlink:href="#P"/><use transform="matrix(0.010850694444444444,0,0,0.010850694444444444,40.72265625,0)" xlink:href="#ag"/><use transform="matrix(0.010850694444444444,0,0,0.010850694444444444,53.86284722222222,0)" xlink:href="#Q"/></g><path d="M763 24c-353 0-583-224-583-531v-983h190v968c0 214 149 370 393 370 243 0 391-156 391-370v-968h190v983c0 307-230 531-581 531" id="ah"/><g id="l"><use transform="matrix(0.010850694444444444,0,0,0.010850694444444444,0,0)" xlink:href="#ah"/><use transform="matrix(0.010850694444444444,0,0,0.010850694444444444,16.536458333333332,0)" xlink:href="#P"/><use transform="matrix(0.010850694444444444,0,0,0.010850694444444444,28.266059027777775,0)" xlink:href="#M"/><use transform="matrix(0.010850694444444444,0,0,0.010850694444444444,41.22178819444444,0)" xlink:href="#U"/></g><path d="M653-1490V0H466v-1314h-10L96-1047v-204l324-239h233" id="ai"/><use transform="matrix(0.009765625,0,0,0.009765625,0,0)" xlink:href="#ai" id="m"/><path d="M1096 418H916v-591h-14C865-111 790 24 577 24c-279 0-473-224-473-580 0-354 195-576 474-576 218 0 287 134 324 193h20v-179h174V418zM604-137c203 0 314-172 314-421 0-247-108-413-314-413-212 0-317 181-317 413 0 235 108 421 317 421" id="aj"/><g id="n"><use transform="matrix(0.008680555555555556,0,0,0.008680555555555556,0,0)" xlink:href="#ah"/><use transform="matrix(0.008680555555555556,0,0,0.008680555555555556,13.229166666666668,0)" xlink:href="#V"/><use transform="matrix(0.008680555555555556,0,0,0.008680555555555556,23.732638888888893,0)" xlink:href="#Q"/><use transform="matrix(0.008680555555555556,0,0,0.008680555555555556,28.03819444444445,0)" xlink:href="#aj"/><use transform="matrix(0.008680555555555556,0,0,0.008680555555555556,38.923611111111114,0)" xlink:href="#ad"/><use transform="matrix(0.008680555555555556,0,0,0.008680555555555556,49.43576388888889,0)" xlink:href="#M"/></g><path d="M677 24c-213 0-288-135-325-197h-20V0H158v-1490h180v551h14c37-59 106-193 324-193 279 0 474 222 474 576 0 356-194 580-473 580zm-27-161c209 0 317-186 317-421 0-232-105-413-317-413-206 0-314 166-314 413 0 249 111 421 314 421" id="ak"/><g id="o"><use transform="matrix(0.008680555555555556,0,0,0.008680555555555556,0,0)" xlink:href="#ak"/><use transform="matrix(0.008680555555555556,0,0,0.008680555555555556,10.885416666666668,0)" xlink:href="#Q"/><use transform="matrix(0.008680555555555556,0,0,0.008680555555555556,15.190972222222223,0)" xlink:href="#R"/><use transform="matrix(0.008680555555555556,0,0,0.008680555555555556,20.833333333333336,0)" xlink:href="#ab"/><use transform="matrix(0.008680555555555556,0,0,0.008680555555555556,30.989583333333336,0)" xlink:href="#O"/><use transform="matrix(0.008680555555555556,0,0,0.008680555555555556,41.64930555555556,0)" xlink:href="#Q"/><use transform="matrix(0.008680555555555556,0,0,0.008680555555555556,45.954861111111114,0)" xlink:href="#V"/></g><path d="M577 24c-279 0-473-224-473-580 0-354 195-576 474-576 218 0 287 134 324 193h14v-551h180V0H922v-173h-20C865-111 790 24 577 24zm27-161c203 0 314-172 314-421 0-247-108-413-314-413-212 0-317 181-317 413 0 235 108 421 317 421" id="al"/><g id="p"><use transform="matrix(0.008680555555555556,0,0,0.008680555555555556,0,0)" xlink:href="#al"/><use transform="matrix(0.008680555555555556,0,0,0.008680555555555556,10.885416666666668,0)" xlink:href="#M"/><use transform="matrix(0.008680555555555556,0,0,0.008680555555555556,21.25,0)" xlink:href="#N"/><use transform="matrix(0.008680555555555556,0,0,0.008680555555555556,32.13541666666667,0)" xlink:href="#O"/><use transform="matrix(0.008680555555555556,0,0,0.008680555555555556,42.79513888888889,0)" xlink:href="#P"/><use transform="matrix(0.008680555555555556,0,0,0.008680555555555556,52.17881944444445,0)" xlink:href="#Q"/><use transform="matrix(0.008680555555555556,0,0,0.008680555555555556,56.48437500000001,0)" xlink:href="#R"/></g><g id="q"><use transform="matrix(0.008680555555555556,0,0,0.008680555555555556,0,0)" xlink:href="#W"/><use transform="matrix(0.008680555555555556,0,0,0.008680555555555556,9.98263888888889,0)" xlink:href="#al"/><use transform="matrix(0.008680555555555556,0,0,0.008680555555555556,20.868055555555557,0)" xlink:href="#al"/><use transform="matrix(0.008680555555555556,0,0,0.008680555555555556,31.753472222222225,0)" xlink:href="#U"/><use transform="matrix(0.008680555555555556,0,0,0.008680555555555556,38.15104166666667,0)" xlink:href="#M"/><use transform="matrix(0.008680555555555556,0,0,0.008680555555555556,48.51562500000001,0)" xlink:href="#P"/><use transform="matrix(0.008680555555555556,0,0,0.008680555555555556,57.899305555555564,0)" xlink:href="#P"/></g><path d="M338-1490V0H158v-1490h180" id="am"/><path d="M158 0v-1118h175l1 205c55-151 181-225 313-225 147 0 245 90 285 228 53-141 190-228 352-228 194 0 352 125 352 384V0h-181v-749c0-161-105-225-225-225-151 0-243 103-243 244V0H807v-767c0-124-93-207-219-207-131 0-250 92-250 270V0H158" id="an"/><g id="r"><use transform="matrix(0.008680555555555556,0,0,0.008680555555555556,0,0)" xlink:href="#aa"/><use transform="matrix(0.008680555555555556,0,0,0.008680555555555556,12.986111111111112,0)" xlink:href="#am"/><use transform="matrix(0.008680555555555556,0,0,0.008680555555555556,17.291666666666668,0)" xlink:href="#W"/><use transform="matrix(0.008680555555555556,0,0,0.008680555555555556,27.274305555555557,0)" xlink:href="#Q"/><use transform="matrix(0.008680555555555556,0,0,0.008680555555555556,31.579861111111114,0)" xlink:href="#an"/></g><g id="s"><use transform="matrix(0.008680555555555556,0,0,0.008680555555555556,0,0)" xlink:href="#al"/><use transform="matrix(0.008680555555555556,0,0,0.008680555555555556,10.885416666666668,0)" xlink:href="#M"/><use transform="matrix(0.008680555555555556,0,0,0.008680555555555556,21.25,0)" xlink:href="#N"/><use transform="matrix(0.008680555555555556,0,0,0.008680555555555556,32.13541666666667,0)" xlink:href="#O"/><use transform="matrix(0.008680555555555556,0,0,0.008680555555555556,42.79513888888889,0)" xlink:href="#P"/><use transform="matrix(0.008680555555555556,0,0,0.008680555555555556,52.17881944444445,0)" xlink:href="#Q"/><use transform="matrix(0.008680555555555556,0,0,0.008680555555555556,56.48437500000001,0)" xlink:href="#R"/></g><g id="t"><use transform="matrix(0.008680555555555556,0,0,0.008680555555555556,0,0)" xlink:href="#U"/><use transform="matrix(0.008680555555555556,0,0,0.008680555555555556,6.397569444444445,0)" xlink:href="#M"/><use transform="matrix(0.008680555555555556,0,0,0.008680555555555556,16.76215277777778,0)" xlink:href="#ab"/><use transform="matrix(0.008680555555555556,0,0,0.008680555555555556,26.91840277777778,0)" xlink:href="#M"/><use transform="matrix(0.008680555555555556,0,0,0.008680555555555556,37.282986111111114,0)" xlink:href="#Q"/><use transform="matrix(0.008680555555555556,0,0,0.008680555555555556,41.58854166666667,0)" xlink:href="#N"/><use transform="matrix(0.008680555555555556,0,0,0.008680555555555556,52.47395833333334,0)" xlink:href="#R"/></g><path d="M678-1118v154H420V0H240v-964H20v-154h220v-149c0-194 155-293 318-293 85 0 141 18 168 30l-50 154c-19-6-47-17-97-17-111 0-159 58-159 166v109h258" id="ao"/><g id="u"><use transform="matrix(0.008680555555555556,0,0,0.008680555555555556,0,0)" xlink:href="#ao"/><use transform="matrix(0.008680555555555556,0,0,0.008680555555555556,6.0590277777777795,0)" xlink:href="#O"/><use transform="matrix(0.008680555555555556,0,0,0.008680555555555556,16.71875,0)" xlink:href="#U"/></g><g id="v"><use transform="matrix(0.008680555555555556,0,0,0.008680555555555556,0,0)" xlink:href="#Y"/><use transform="matrix(0.008680555555555556,0,0,0.008680555555555556,10.625,0)" xlink:href="#Z"/><use transform="matrix(0.008680555555555556,0,0,0.008680555555555556,21.571180555555557,0)" xlink:href="#aa"/></g><path d="M218-607c0-325 108-727 258-974h175c-155 315-250 682-250 974 0 265 78 531 250 886H476C306-10 218-315 218-607" id="ap"/><path d="M96 279C273-86 346-350 346-607c0-292-95-659-250-974h175c150 246 258 650 258 974 0 297-91 602-258 886H96" id="aq"/><g id="w"><use transform="matrix(0.008680555555555556,0,0,0.008680555555555556,0,0)" xlink:href="#ap"/><use transform="matrix(0.008680555555555556,0,0,0.008680555555555556,6.484375,0)" xlink:href="#P"/><use transform="matrix(0.008680555555555556,0,0,0.008680555555555556,15.868055555555557,0)" xlink:href="#Y"/><use transform="matrix(0.008680555555555556,0,0,0.008680555555555556,26.493055555555557,0)" xlink:href="#Z"/><use transform="matrix(0.008680555555555556,0,0,0.008680555555555556,37.439236111111114,0)" xlink:href="#aa"/><use transform="matrix(0.008680555555555556,0,0,0.008680555555555556,50.425347222222236,0)" xlink:href="#aq"/></g><path d="M659 0H135v-1490h529c448 0 721 280 721 744 0 466-273 746-726 746zM440-263h204c287 0 437-148 437-483 0-333-150-481-435-481H440v964" id="ar"/><path d="M633 22C291 22 81-200 81-553c0-345 210-579 537-579 292 0 525 185 525 567v84H378c7 183 109 277 260 277 105 0 184-46 216-132l272 51C1071-99 893 22 633 22zM380-669h474c-15-146-94-237-233-237-143 0-229 99-241 237" id="as"/><path d="M128 418v-1536h295v188h14c41-89 129-202 319-202 248 0 453 193 453 575 0 372-197 576-455 576-183 0-275-108-317-198h-9v597H128zm534-640c156 0 240-139 240-336 0-196-83-334-240-334-154 0-241 131-241 334 0 202 88 336 241 336" id="at"/><path d="M628 22C291 22 81-210 81-554c0-346 210-578 547-578 336 0 547 232 547 578 0 344-211 576-547 576zm0-236c160 0 242-146 242-341 0-197-82-341-242-341S387-753 387-555c0 195 81 341 241 341" id="au"/><path d="M572 22C302 22 117-98 78-306l279-48c29 105 101 156 224 156 114 0 185-48 185-115 0-118-228-130-337-155-215-49-322-150-322-317 0-215 187-347 470-347 265 0 424 116 466 298l-266 47c-24-76-87-130-196-130-98 0-174 46-174 113 0 56 38 95 144 117l201 40c216 44 320 143 320 302 0 220-207 367-500 367" id="av"/><path d="M128 0v-1118h300V0H128zm150-1264c-91 0-165-68-165-154 0-85 74-154 165-154 90 0 165 69 165 154 0 86-75 154-165 154" id="aw"/><path d="M683-1118v229H474v562c0 71 29 104 102 104 23 0 73-7 95-13l43 225C647 9 580 16 520 16 296 16 174-96 174-301v-588H20v-229h154v-266h300v266h209" id="ax"/><g id="x"><use transform="matrix(0.013020833333333334,0,0,0.013020833333333334,0,0)" xlink:href="#ar"/><use transform="matrix(0.013020833333333334,0,0,0.013020833333333334,19.2578125,0)" xlink:href="#as"/><use transform="matrix(0.013020833333333334,0,0,0.013020833333333334,35.14322916666667,0)" xlink:href="#at"/><use transform="matrix(0.013020833333333334,0,0,0.013020833333333334,51.95312500000001,0)" xlink:href="#au"/><use transform="matrix(0.013020833333333334,0,0,0.013020833333333334,68.30729166666667,0)" xlink:href="#av"/><use transform="matrix(0.013020833333333334,0,0,0.013020833333333334,83.2421875,0)" xlink:href="#aw"/><use transform="matrix(0.013020833333333334,0,0,0.013020833333333334,90.46875,0)" xlink:href="#ax"/></g><path d="M135 0v-1490h980v253H440v416h609v249H440V0H135" id="ay"/><path d="M428-1490V0H128v-1490h300" id="az"/><path d="M361 0L31-1118h315c68 295 127 523 188 845 63-317 128-551 199-845h276c71 296 131 525 196 846 57-321 119-552 186-846h319L1378 0h-305c-73-261-148-486-204-771C813-484 740-261 666 0H361" id="aA"/><g id="y"><use transform="matrix(0.013020833333333334,0,0,0.013020833333333334,0,0)" xlink:href="#ay"/><use transform="matrix(0.013020833333333334,0,0,0.013020833333333334,15.651041666666668,0)" xlink:href="#az"/><use transform="matrix(0.013020833333333334,0,0,0.013020833333333334,22.877604166666668,0)" xlink:href="#au"/><use transform="matrix(0.013020833333333334,0,0,0.013020833333333334,38.8671875,0)" xlink:href="#aA"/></g><use transform="matrix(0.009765625,0,0,0.009765625,0,0)" xlink:href="#ai" id="z"/><path d="M154 0v-137l495-537c165-179 249-281 249-418 0-156-121-253-280-253-170 0-278 110-278 278H158c0-264 200-443 465-443 266 0 455 183 455 416 0 161-73 288-336 568L416-179v12h687V0H154" id="aB"/><use transform="matrix(0.009765625,0,0,0.009765625,0,0)" xlink:href="#aB" id="A"/><path d="M635 20c-292 0-500-160-510-396h192c11 142 145 229 315 229 187 0 323-105 323-260 0-161-125-274-346-274H488v-165h121c174 0 294-100 294-254 0-148-104-245-266-245-152 0-291 85-297 230H157c8-234 222-395 484-395 278 0 448 188 448 400 0 168-95 291-247 336v12c190 31 301 169 301 357 0 244-216 425-508 425" id="aC"/><use transform="matrix(0.009765625,0,0,0.009765625,0,0)" xlink:href="#aC" id="B"/><path d="M120-303v-155l652-1032h231v1020h202v167h-202V0H821v-303H120zm702-167v-782h-12L323-482v12h499" id="aD"/><use transform="matrix(0.009765625,0,0,0.009765625,0,0)" xlink:href="#aD" id="C"/><path d="M180 0v-1490h190v1322h690V0H180" id="aE"/><g id="D"><use transform="matrix(0.008680555555555556,0,0,0.008680555555555556,0,0)" xlink:href="#aE"/><use transform="matrix(0.008680555555555556,0,0,0.008680555555555556,10.052083333333334,0)" xlink:href="#Q"/><use transform="matrix(0.008680555555555556,0,0,0.008680555555555556,14.35763888888889,0)" xlink:href="#P"/><use transform="matrix(0.008680555555555556,0,0,0.008680555555555556,23.741319444444443,0)" xlink:href="#R"/><use transform="matrix(0.008680555555555556,0,0,0.008680555555555556,29.383680555555554,0)" xlink:href="#M"/><use transform="matrix(0.008680555555555556,0,0,0.008680555555555556,39.748263888888886,0)" xlink:href="#V"/></g><path d="M409 0L70-1118h191c89 329 165 560 243 925 75-353 154-601 240-925h192c85 325 161 564 235 922 77-354 157-598 244-922h191L1267 0h-179c-86-307-176-590-250-913C763-588 675-308 588 0H409" id="aF"/><g id="E"><use transform="matrix(0.008680555555555556,0,0,0.008680555555555556,0,0)" xlink:href="#V"/><use transform="matrix(0.008680555555555556,0,0,0.008680555555555556,10.503472222222223,0)" xlink:href="#M"/><use transform="matrix(0.008680555555555556,0,0,0.008680555555555556,20.546875,0)" xlink:href="#aF"/></g><g id="F"><use transform="matrix(0.008680555555555556,0,0,0.008680555555555556,0,0)" xlink:href="#al"/><use transform="matrix(0.008680555555555556,0,0,0.008680555555555556,10.885416666666668,0)" xlink:href="#M"/><use transform="matrix(0.008680555555555556,0,0,0.008680555555555556,21.25,0)" xlink:href="#N"/><use transform="matrix(0.008680555555555556,0,0,0.008680555555555556,32.13541666666667,0)" xlink:href="#O"/><use transform="matrix(0.008680555555555556,0,0,0.008680555555555556,42.79513888888889,0)" xlink:href="#P"/><use transform="matrix(0.008680555555555556,0,0,0.008680555555555556,52.17881944444445,0)" xlink:href="#Q"/><use transform="matrix(0.008680555555555556,0,0,0.008680555555555556,56.48437500000001,0)" xlink:href="#R"/><use transform="matrix(0.008680555555555556,0,0,0.008680555555555556,62.126736111111114,0)" xlink:href="#P"/></g><path fill="#333" d="M784 20c-382 0-662-292-662-764 0-473 280-766 662-766s660 293 660 766c0 282-99 499-260 629l192 255h-198L1049-33C969 2 880 20 784 20zm-62-486h198l156 205c112-98 183-261 183-483 0-383-209-590-475-590-268 0-477 208-477 590 0 380 209 588 477 588 54 0 106-9 154-25" id="aG"/><path fill="#333" d="M537 14c-226 0-379-139-379-422v-710h180v695c0 172 97 275 253 275 160 0 281-109 281-300v-670h181V0H879v-209C806-46 684 14 537 14" id="aH"/><path fill="#333" d="M613 24c-304 0-509-231-509-576 0-350 205-580 509-580 305 0 511 230 511 580 0 345-206 576-511 576zm0-161c226 0 329-195 329-415 0-222-103-419-329-419-223 0-326 196-326 419 0 220 103 415 326 415" id="aI"/><path fill="#333" d="M158 0v-1118h174v172h12c41-113 157-188 290-188 26 0 70 2 91 3v181c-11-2-60-10-108-10-161 0-279 109-279 260V0H158" id="aJ"/><path fill="#333" d="M158 0v-1118h175l1 205c55-151 181-225 313-225 147 0 245 90 285 228 53-141 190-228 352-228 194 0 352 125 352 384V0h-181v-749c0-161-105-225-225-225-151 0-243 103-243 244V0H807v-767c0-124-93-207-219-207-131 0-250 92-250 270V0H158" id="aK"/><g id="G"><use transform="matrix(0.008680555555555556,0,0,0.008680555555555556,0,0)" xlink:href="#aG"/><use transform="matrix(0.008680555555555556,0,0,0.008680555555555556,13.59375,0)" xlink:href="#aH"/><use transform="matrix(0.008680555555555556,0,0,0.008680555555555556,24.10590277777778,0)" xlink:href="#aI"/><use transform="matrix(0.008680555555555556,0,0,0.008680555555555556,34.765625,0)" xlink:href="#aJ"/><use transform="matrix(0.008680555555555556,0,0,0.008680555555555556,41.458333333333336,0)" xlink:href="#aH"/><use transform="matrix(0.008680555555555556,0,0,0.008680555555555556,51.970486111111114,0)" xlink:href="#aK"/></g><path fill="#333" d="M471 26C259 26 90-98 90-318c0-256 228-303 435-329 202-27 287-16 287-108 0-139-79-219-234-219-161 0-248 86-283 164l-173-57c86-203 278-265 451-265 150 0 419 46 419 395V0H815v-152h-12C765-73 660 26 471 26zm31-159c199 0 310-134 310-271v-155c-30 35-226 55-295 64-131 17-246 59-246 186 0 116 97 176 231 176" id="aL"/><path fill="#333" d="M611 442c-248 0-391-105-460-228l146-94c47 65 117 165 314 165 178 0 307-82 307-266v-224h-17C863-141 792-18 576-18c-268 0-472-195-472-546 0-346 197-568 476-568 216 0 288 133 326 193h17v-179h175V29c0 289-215 413-487 413zm-5-620c203 0 314-146 314-390 0-237-108-403-314-403-213 0-319 180-319 403 0 230 109 390 319 390" id="aM"/><path fill="#333" d="M628 24c-324 0-524-230-524-574 0-343 198-582 503-582 237 0 487 146 487 559v75H286c9 234 145 362 343 362 132 0 231-58 273-172l174 48C1024-91 857 24 628 24zM287-650h624c-17-190-120-322-304-322-192 0-309 151-320 322" id="aN"/><path fill="#333" d="M338-670V0H158v-1118h173l1 207c72-158 192-221 342-221 226 0 378 139 378 422V0H872v-695c0-172-96-275-252-275-161 0-282 109-282 300" id="aO"/><path fill="#333" d="M598-1118v154H368v674c0 100 37 144 132 144 23 0 62-6 92-12L629-6c-37 13-88 20-134 20-193 0-307-107-307-290v-688H20v-154h168v-266h180v266h230" id="aP"/><g id="H"><use transform="matrix(0.008680555555555556,0,0,0.008680555555555556,0,0)" xlink:href="#aL"/><use transform="matrix(0.008680555555555556,0,0,0.008680555555555556,9.98263888888889,0)" xlink:href="#aM"/><use transform="matrix(0.008680555555555556,0,0,0.008680555555555556,20.885416666666668,0)" xlink:href="#aJ"/><use transform="matrix(0.008680555555555556,0,0,0.008680555555555556,27.28298611111111,0)" xlink:href="#aN"/><use transform="matrix(0.008680555555555556,0,0,0.008680555555555556,37.64756944444444,0)" xlink:href="#aN"/><use transform="matrix(0.008680555555555556,0,0,0.008680555555555556,48.012152777777786,0)" xlink:href="#aK"/><use transform="matrix(0.008680555555555556,0,0,0.008680555555555556,63.58506944444446,0)" xlink:href="#aN"/><use transform="matrix(0.008680555555555556,0,0,0.008680555555555556,73.94965277777779,0)" xlink:href="#aO"/><use transform="matrix(0.008680555555555556,0,0,0.008680555555555556,84.45312500000001,0)" xlink:href="#aP"/></g><g id="I"><use transform="matrix(0.008680555555555556,0,0,0.008680555555555556,0,0)" xlink:href="#aI"/><use transform="matrix(0.008680555555555556,0,0,0.008680555555555556,10.659722222222223,0)" xlink:href="#aO"/></g><path fill="#333" d="M409 0L70-1118h191c89 329 165 560 243 925 75-353 154-601 240-925h192c85 325 161 564 235 922 77-354 157-598 244-922h191L1267 0h-179c-86-307-176-590-250-913C763-588 675-308 588 0H409" id="aQ"/><g id="J"><use transform="matrix(0.008680555555555556,0,0,0.008680555555555556,0,0)" xlink:href="#aO"/><use transform="matrix(0.008680555555555556,0,0,0.008680555555555556,10.503472222222223,0)" xlink:href="#aN"/><use transform="matrix(0.008680555555555556,0,0,0.008680555555555556,20.546875,0)" xlink:href="#aQ"/></g><path fill="#333" d="M577 24c-279 0-473-224-473-580 0-354 195-576 474-576 218 0 287 134 324 193h14v-551h180V0H922v-173h-20C865-111 790 24 577 24zm27-161c203 0 314-172 314-421 0-247-108-413-314-413-212 0-317 181-317 413 0 235 108 421 317 421" id="aR"/><path fill="#333" d="M158 418v-1536h174v179h20c37-59 106-193 324-193 279 0 474 222 474 576 0 356-194 580-473 580-213 0-288-135-325-197h-14v591H158zm492-555c209 0 317-186 317-421 0-232-105-413-317-413-206 0-314 166-314 413 0 249 111 421 314 421" id="aS"/><path fill="#333" d="M538 24C308 24 148-78 108-271l171-41c32 123 123 178 257 178 156 0 256-77 256-169 0-77-54-128-164-154l-186-44c-203-48-300-148-300-305 0-192 176-326 414-326 230 0 351 112 402 269l-163 42c-31-80-94-158-238-158-133 0-233 69-233 162 0 83 57 129 188 160l169 40c203 48 298 149 298 302 0 196-179 339-441 339" id="aT"/><path fill="#333" d="M158 0v-1118h180V0H158zm91-1301c-68 0-125-53-125-119s57-119 125-119c69 0 126 53 126 119s-57 119-126 119" id="aU"/><g id="K"><use transform="matrix(0.008680555555555556,0,0,0.008680555555555556,0,0)" xlink:href="#aR"/><use transform="matrix(0.008680555555555556,0,0,0.008680555555555556,10.885416666666668,0)" xlink:href="#aN"/><use transform="matrix(0.008680555555555556,0,0,0.008680555555555556,21.25,0)" xlink:href="#aS"/><use transform="matrix(0.008680555555555556,0,0,0.008680555555555556,32.13541666666667,0)" xlink:href="#aI"/><use transform="matrix(0.008680555555555556,0,0,0.008680555555555556,42.79513888888889,0)" xlink:href="#aT"/><use transform="matrix(0.008680555555555556,0,0,0.008680555555555556,52.17881944444445,0)" xlink:href="#aU"/><use transform="matrix(0.008680555555555556,0,0,0.008680555555555556,56.48437500000001,0)" xlink:href="#aP"/></g></defs></g></svg>