<svg xmlns="http://www.w3.org/2000/svg" xmlns:xlink="http://www.w3.org/1999/xlink" xmlns:lucid="lucid" width="1280" height="719.33"><g transform="translate(-1002.4811904675381 -680)" lucid:page-tab-id="0_0"><path d="M-1500-1000h4000v3000h-4000z" fill="#fff"/><path d="M1304.67 883.28v10.08m0 10.1v20.15m0 10.1v20.16m0 10.08v20.17m0 10.1v20.16m0 10.08v20.16m0 10.1v20.15m0 10.1v20.15m0 10.08v20.17m0 10.08v20.17m0 10.08v20.17m0 10.08v20.16m0 10.08v20.16m0 10.1v20.15m0 10.07v20.17m0 10.08v20.17m0 10.07v20.16m0 10.1v10.07" stroke="#333" fill="none"/><path d="M1304.67 882.78l.47-.03v.54h-.95v-.55z" stroke="#333" stroke-width=".05" fill="#333"/><path d="M1304.67 1397.5v.5" stroke="#333" fill="none"/><path d="M1180 969a8 8 0 0 1 8-8h84a8 8 0 0 1 8 8v4.94a17.07 17.07 0 0 1-5 12.07 17.07 17.07 0 0 1-12.07 5H1188a8 8 0 0 1-8-8z" fill="#fff"/><path d="M1280 961v20l-10 10h-90" stroke="#333" fill="none"/><path d="M1180 969a8 8 0 0 1 8-8h924a8 8 0 0 1 8 8v343a8 8 0 0 1-8 8h-924a8 8 0 0 1-8-8z" stroke="#333" fill="none"/><use xlink:href="#a" transform="matrix(1,0,0,1,1188,961.010637792344) translate(3.678906249999997 21.014322916666668)"/><path d="M1643.3 870.23v9.8m0 9.78v19.6m0 9.77v19.58m0 9.8v19.57m0 9.8v19.57m0 9.77v19.58m0 9.8v19.57m0 9.8v19.57m0 9.78v19.57m0 9.8v19.57m0 9.8v19.57m0 9.78v19.57m0 9.8v19.57m0 9.8v19.57m0 9.78v19.58m0 9.78v19.58m0 9.8v19.57m0 9.78v19.58m0 9.78v9.8" stroke="#333" fill="none"/><path stroke="#333" stroke-width=".05" fill="#333"/><path d="M1643.3 1398.82v.5M2004.13 871.23v9.74m0 9.75v19.5m0 9.74v19.5m0 9.74v19.5m0 9.73v19.5m0 9.74v19.5m0 9.74v19.5m0 9.74v19.5m0 9.74v19.5m0 9.74v19.5m0 9.74v19.5m0 9.73v19.5m0 9.73v19.5m0 9.74v19.5m0 9.74v19.5m0 9.74v19.5m0 9.74v19.5m0 9.74v19.5m0 9.73v9.75" stroke="#333" fill="none"/><path d="M2004.6 871.24h-.95v-.5h.95z" stroke="#333" stroke-width=".05" fill="#333"/><path d="M2004.13 1397.5v.5" stroke="#333" fill="none"/><path d="M1909.1 749.73a8 8 0 0 1 8-8h174.07a8 8 0 0 1 8 8v112a8 8 0 0 1-8 8H1917.1a8 8 0 0 1-8-8z" stroke="#000" stroke-width="2" fill="#f7931a"/><use xlink:href="#b" transform="matrix(1,0,0,1,1917.090763541934,749.728656235703) translate(51.74696180555556 64.08376736111111)"/><path d="M1624.37 939.46a8 8 0 0 1 8-8h24a8 8 0 0 1 8 8V1352a8 8 0 0 1-8 8h-24a8 8 0 0 1-8-8z" stroke="#6db1ff" stroke-width="2" fill="#ced4db"/><path d="M1332.16 1017.4H1606.98M1332.18 1017.4h-.52" stroke="#333" fill="none"/><path d="M1621.75 1017.4l-14.27 4.63v-9.27z" stroke="#333" fill="#333"/><use xlink:href="#c" transform="matrix(1,0,0,1,1393.488409803993,1021.3943555053426) translate(0.0049999999999954525 17.22222222222222)"/><use xlink:href="#d" transform="matrix(1,0,0,1,1393.488409803993,1021.3943555053426) translate(73.51194444444445 17.22222222222222)"/><path d="M1548.26 749.73a8 8 0 0 1 8-8h174.07a8 8 0 0 1 8 8v112a8 8 0 0 1-8 8h-174.07a8 8 0 0 1-8-8z" stroke="#000" stroke-width="2" fill="#6db1ff"/><use xlink:href="#e" transform="matrix(1,0,0,1,1556.2567652137136,749.728656235703) translate(31.233723958333336 64.08376736111111)"/><use xlink:href="#f" transform="matrix(1,0,0,1,1556.2567652137136,749.728656235703) translate(70.263671875 64.08376736111111)"/><use xlink:href="#g" transform="matrix(1,0,0,1,1556.2567652137136,749.728656235703) translate(84.521484375 64.08376736111111)"/><path d="M1299.87 744.38a8 8 0 0 1 9.6 0l85.73 64.3a4.5 4.5 0 0 1 0 7.2l-85.73 64.3a8 8 0 0 1-9.6 0l-85.74-64.3a4.5 4.5 0 0 1 0-7.2z" stroke="#000" stroke-width="2" fill="#e3fae3"/><use xlink:href="#h" transform="matrix(1,0,0,1,1214.3313828194537,745.7781185464507) translate(65.21116319444445 75.96527777777777)"/><path d="M1284.67 939.46a8 8 0 0 1 8-8h24a8 8 0 0 1 8 8V1352a8 8 0 0 1-8 8h-24a8 8 0 0 1-8-8z" stroke="#6db1ff" stroke-width="2" fill="#ced4db"/><path d="M1665.87 1091.12H1915a5 5 0 0 1 5 5v66.78a5 5 0 0 1-5 5h-233.25" stroke="#333" fill="none"/><path d="M1665.88 1091.6h-.5v-.95h.5z" stroke="#333" stroke-width=".05" fill="#333"/><path d="M1667 1167.9l14.25-4.63v9.27z" stroke="#333" fill="#333"/><use xlink:href="#i" transform="matrix(1,0,0,1,1687.6076388888887,1108.0037189716156) translate(0 17.22222222222222)"/><use xlink:href="#j" transform="matrix(1,0,0,1,1687.6076388888887,1108.0037189716156) translate(46.44965277777778 17.22222222222222)"/><use xlink:href="#k" transform="matrix(1,0,0,1,1687.6076388888887,1108.0037189716156) translate(86.00694444444446 17.22222222222222)"/><use xlink:href="#l" transform="matrix(1,0,0,1,1687.6076388888887,1108.0037189716156) translate(184.80902777777783 17.22222222222222)"/><use xlink:href="#m" transform="matrix(1,0,0,1,1687.6076388888887,1108.0037189716156) translate(0 38.732638888888886)"/><use xlink:href="#n" transform="matrix(1,0,0,1,1687.6076388888887,1108.0037189716156) translate(35.26041666666667 38.732638888888886)"/><use xlink:href="#o" transform="matrix(1,0,0,1,1687.6076388888887,1108.0037189716156) translate(80.65972222222223 38.732638888888886)"/><use xlink:href="#p" transform="matrix(1,0,0,1,1687.6076388888887,1108.0037189716156) translate(101.96180555555557 38.732638888888886)"/><use xlink:href="#q" transform="matrix(1,0,0,1,1687.6076388888887,1108.0037189716156) translate(146.22395833333337 38.732638888888886)"/><path d="M1984.13 939.46a8 8 0 0 1 8-8h24a8 8 0 0 1 8 8V1352a8 8 0 0 1-8 8h-24a8 8 0 0 1-8-8z" stroke="#6db1ff" stroke-width="2" fill="#ced4db"/><path d="M1002.48 686a6 6 0 0 1 6-6h1268a6 6 0 0 1 6 6v48a6 6 0 0 1-6 6h-1268a6 6 0 0 1-6-6z" fill="none"/><use xlink:href="#r" transform="matrix(1,0,0,1,1002.4811904675381,680) translate(531.8606770833334 39.700520833333336)"/><use xlink:href="#s" transform="matrix(1,0,0,1,1002.4811904675381,680) translate(687.6028645833334 39.700520833333336)"/><path d="M1500.67 991.33c0 11.05-8.96 20-20 20-11.05 0-20-8.95-20-20 0-11.04 8.95-20 20-20 11.04 0 20 8.96 20 20z" stroke="#000" stroke-width="2" fill="#cfe4ff"/><g><use xlink:href="#t" transform="matrix(1,0,0,1,1465.666666666667,976.3333333333335) translate(10.9326171875 23.125)"/></g><path d="M1820 1060c0 11.05-8.95 20-20 20s-20-8.95-20-20 8.95-20 20-20 20 8.95 20 20z" stroke="#000" stroke-width="2" fill="#cfe4ff"/><g><use xlink:href="#u" transform="matrix(1,0,0,1,1785,1045) translate(8.9013671875 23.125)"/></g><path d="M1844.25 1228.67c0 11.04-8.96 20-20 20-11.05 0-20-8.96-20-20 0-11.05 8.95-20 20-20 11.04 0 20 8.95 20 20z" stroke="#000" stroke-width="2" fill="#cfe4ff"/><g><use xlink:href="#v" transform="matrix(1,0,0,1,1809.2481517119102,1213.666666666667) translate(8.8232421875 23.125)"/></g><path d="M1966.74 1258.17h-300.87" stroke="#333" fill="none"/><path d="M1981.5 1258.17l-14.26 4.64v-9.26z" stroke="#333" fill="#333"/><path d="M1665.88 1258.65h-.5v-.95h.5z" stroke="#333" stroke-width=".05" fill="#333"/><g><use xlink:href="#w" transform="matrix(1,0,0,1,1729.899225625822,1262.1723858263774) translate(0.0049999999999954525 17.22222222222222)"/><use xlink:href="#x" transform="matrix(1,0,0,1,1729.899225625822,1262.1723858263774) translate(90.24805555555557 17.22222222222222)"/></g><defs><path d="M458 0L52-1490h194c108 439 233 855 324 1313 92-459 221-873 331-1313h216c110 438 234 854 330 1307 92-455 216-869 323-1307h196L1558 0h-221l-256-944c-26-95-50-200-73-331-22 122-44 223-73 331L680 0H458" id="y"/><path d="M158 0v-1118h180V0H158zm91-1301c-68 0-125-53-125-119s57-119 125-119c69 0 126 53 126 119s-57 119-126 119" id="z"/><path d="M598-1118v154H368v674c0 100 37 144 132 144 23 0 62-6 92-12L629-6c-37 13-88 20-134 20-193 0-307-107-307-290v-688H20v-154h168v-266h180v266h230" id="A"/><path d="M338-670V0H158v-1490h180v566c73-149 190-208 336-208 226 0 379 139 379 422V0H872v-695c0-172-96-275-252-275-161 0-282 109-282 300" id="B"/><path d="M577 24c-279 0-473-224-473-580 0-354 195-576 474-576 218 0 287 134 324 193h14v-551h180V0H922v-173h-20C865-111 790 24 577 24zm27-161c203 0 314-172 314-421 0-247-108-413-314-413-212 0-317 181-317 413 0 235 108 421 317 421" id="C"/><path d="M158 0v-1118h174v172h12c41-113 157-188 290-188 26 0 70 2 91 3v181c-11-2-60-10-108-10-161 0-279 109-279 260V0H158" id="D"/><path d="M471 26C259 26 90-98 90-318c0-256 228-303 435-329 202-27 287-16 287-108 0-139-79-219-234-219-161 0-248 86-283 164l-173-57c86-203 278-265 451-265 150 0 419 46 419 395V0H815v-152h-12C765-73 660 26 471 26zm31-159c199 0 310-134 310-271v-155c-30 35-226 55-295 64-131 17-246 59-246 186 0 116 97 176 231 176" id="E"/><path d="M409 0L70-1118h191c89 329 165 560 243 925 75-353 154-601 240-925h192c85 325 161 564 235 922 77-354 157-598 244-922h191L1267 0h-179c-86-307-176-590-250-913C763-588 675-308 588 0H409" id="F"/><g id="a"><use transform="matrix(0.008072916666666667,0,0,0.008072916666666667,0,0)" xlink:href="#y"/><use transform="matrix(0.008072916666666667,0,0,0.008072916666666667,16.291145833333335,0)" xlink:href="#z"/><use transform="matrix(0.008072916666666667,0,0,0.008072916666666667,20.2953125,0)" xlink:href="#A"/><use transform="matrix(0.008072916666666667,0,0,0.008072916666666667,25.70416666666667,0)" xlink:href="#B"/><use transform="matrix(0.008072916666666667,0,0,0.008072916666666667,35.48046875000001,0)" xlink:href="#C"/><use transform="matrix(0.008072916666666667,0,0,0.008072916666666667,45.60390625,0)" xlink:href="#D"/><use transform="matrix(0.008072916666666667,0,0,0.008072916666666667,51.828125,0)" xlink:href="#E"/><use transform="matrix(0.008072916666666667,0,0,0.008072916666666667,61.11197916666667,0)" xlink:href="#F"/></g><path d="M180 0v-1490h528c311 0 458 177 458 395 0 191-114 278-244 313v14c139 9 302 137 302 371 0 225-148 397-499 397H180zm190-168h350c232 0 321-102 321-231 0-149-120-277-311-277H370v508zm0-668h328c160 0 286-101 286-255 0-129-87-231-280-231H370v486" id="G"/><path d="M613 24c-304 0-509-231-509-576 0-350 205-580 509-580 216 0 392 114 453 309l-173 49c-33-115-133-197-280-197-223 0-326 196-326 419 0 220 103 415 326 415 150 0 252-85 285-206l172 49C1010-95 832 24 613 24" id="H"/><path d="M613 24c-304 0-509-231-509-576 0-350 205-580 509-580 305 0 511 230 511 580 0 345-206 576-511 576zm0-161c226 0 329-195 329-415 0-222-103-419-329-419-223 0-326 196-326 419 0 220 103 415 326 415" id="I"/><path d="M338-670V0H158v-1118h173l1 207c72-158 192-221 342-221 226 0 378 139 378 422V0H872v-695c0-172-96-275-252-275-161 0-282 109-282 300" id="J"/><g id="b"><use transform="matrix(0.010850694444444444,0,0,0.010850694444444444,0,0)" xlink:href="#G"/><use transform="matrix(0.010850694444444444,0,0,0.010850694444444444,14.539930555555555,0)" xlink:href="#z"/><use transform="matrix(0.010850694444444444,0,0,0.010850694444444444,19.921875,0)" xlink:href="#A"/><use transform="matrix(0.010850694444444444,0,0,0.010850694444444444,26.97482638888889,0)" xlink:href="#H"/><use transform="matrix(0.010850694444444444,0,0,0.010850694444444444,39.670138888888886,0)" xlink:href="#I"/><use transform="matrix(0.010850694444444444,0,0,0.010850694444444444,52.994791666666664,0)" xlink:href="#z"/><use transform="matrix(0.010850694444444444,0,0,0.010850694444444444,58.37673611111111,0)" xlink:href="#J"/></g><path d="M180 0v-1490h510c348 0 508 194 508 460 0 198-88 351-276 417L1256 0h-220L726-579c-117 2-238 0-356 1V0H180zm190-747h312c235 0 327-108 327-283 0-177-92-293-329-293H370v576" id="K"/><path d="M628 24c-324 0-524-230-524-574 0-343 198-582 503-582 237 0 487 146 487 559v75H286c9 234 145 362 343 362 132 0 231-58 273-172l174 48C1024-91 857 24 628 24zM287-650h624c-17-190-120-322-304-322-192 0-309 151-320 322" id="L"/><path d="M1096 418H916v-591h-14C865-111 790 24 577 24c-279 0-473-224-473-580 0-354 195-576 474-576 218 0 287 134 324 193h20v-179h174V418zM604-137c203 0 314-172 314-421 0-247-108-413-314-413-212 0-317 181-317 413 0 235 108 421 317 421" id="M"/><path d="M537 14c-226 0-379-139-379-422v-710h180v695c0 172 97 275 253 275 160 0 281-109 281-300v-670h181V0H879v-209C806-46 684 14 537 14" id="N"/><path d="M538 24C308 24 148-78 108-271l171-41c32 123 123 178 257 178 156 0 256-77 256-169 0-77-54-128-164-154l-186-44c-203-48-300-148-300-305 0-192 176-326 414-326 230 0 351 112 402 269l-163 42c-31-80-94-158-238-158-133 0-233 69-233 162 0 83 57 129 188 160l169 40c203 48 298 149 298 302 0 196-179 339-441 339" id="O"/><g id="c"><use transform="matrix(0.008680555555555556,0,0,0.008680555555555556,0,0)" xlink:href="#K"/><use transform="matrix(0.008680555555555556,0,0,0.008680555555555556,11.180555555555559,0)" xlink:href="#L"/><use transform="matrix(0.008680555555555556,0,0,0.008680555555555556,21.545138888888893,0)" xlink:href="#M"/><use transform="matrix(0.008680555555555556,0,0,0.008680555555555556,32.43055555555556,0)" xlink:href="#N"/><use transform="matrix(0.008680555555555556,0,0,0.008680555555555556,42.942708333333336,0)" xlink:href="#L"/><use transform="matrix(0.008680555555555556,0,0,0.008680555555555556,53.30729166666667,0)" xlink:href="#O"/><use transform="matrix(0.008680555555555556,0,0,0.008680555555555556,62.69097222222223,0)" xlink:href="#A"/></g><path d="M338-1490V0H158v-1490h180" id="P"/><g id="d"><use transform="matrix(0.008680555555555556,0,0,0.008680555555555556,0,0)" xlink:href="#y"/><use transform="matrix(0.008680555555555556,0,0,0.008680555555555556,17.51736111111111,0)" xlink:href="#z"/><use transform="matrix(0.008680555555555556,0,0,0.008680555555555556,21.822916666666664,0)" xlink:href="#A"/><use transform="matrix(0.008680555555555556,0,0,0.008680555555555556,27.638888888888886,0)" xlink:href="#B"/><use transform="matrix(0.008680555555555556,0,0,0.008680555555555556,38.15104166666666,0)" xlink:href="#C"/><use transform="matrix(0.008680555555555556,0,0,0.008680555555555556,49.03645833333333,0)" xlink:href="#D"/><use transform="matrix(0.008680555555555556,0,0,0.008680555555555556,55.729166666666664,0)" xlink:href="#E"/><use transform="matrix(0.008680555555555556,0,0,0.008680555555555556,65.71180555555556,0)" xlink:href="#F"/><use transform="matrix(0.008680555555555556,0,0,0.008680555555555556,80.26041666666667,0)" xlink:href="#E"/><use transform="matrix(0.008680555555555556,0,0,0.008680555555555556,90.24305555555556,0)" xlink:href="#P"/></g><path d="M657 26c-323 0-524-166-541-416h195c15 169 171 246 346 246 202 0 356-106 356-265 5-203-294-238-475-293-239-73-380-191-380-389 0-252 224-419 512-419 294 0 499 171 508 396H992c-17-145-151-228-328-228-193 0-321 102-321 242 0 156 175 211 284 241l149 41c160 44 422 134 422 412 0 244-197 432-541 432" id="Q"/><g id="e"><use transform="matrix(0.010850694444444444,0,0,0.010850694444444444,0,0)" xlink:href="#Q"/><use transform="matrix(0.010850694444444444,0,0,0.010850694444444444,14.2578125,0)" xlink:href="#N"/><use transform="matrix(0.010850694444444444,0,0,0.010850694444444444,27.39800347222222,0)" xlink:href="#z"/></g><path d="M692-1560L212 224H46l480-1784h166" id="R"/><use transform="matrix(0.010850694444444444,0,0,0.010850694444444444,0,0)" xlink:href="#R" id="f"/><path d="M180 0v-1490h190v644h782v-644h190V0h-190v-678H370V0H180" id="S"/><g id="g"><use transform="matrix(0.010850694444444444,0,0,0.010850694444444444,0,0)" xlink:href="#S"/><use transform="matrix(0.010850694444444444,0,0,0.010850694444444444,16.514756944444443,0)" xlink:href="#E"/><use transform="matrix(0.010850694444444444,0,0,0.010850694444444444,28.993055555555554,0)" xlink:href="#O"/><use transform="matrix(0.010850694444444444,0,0,0.010850694444444444,40.72265625,0)" xlink:href="#B"/><use transform="matrix(0.010850694444444444,0,0,0.010850694444444444,53.86284722222222,0)" xlink:href="#z"/></g><path d="M763 24c-353 0-583-224-583-531v-983h190v968c0 214 149 370 393 370 243 0 391-156 391-370v-968h190v983c0 307-230 531-581 531" id="T"/><g id="h"><use transform="matrix(0.010850694444444444,0,0,0.010850694444444444,0,0)" xlink:href="#T"/><use transform="matrix(0.010850694444444444,0,0,0.010850694444444444,16.536458333333332,0)" xlink:href="#O"/><use transform="matrix(0.010850694444444444,0,0,0.010850694444444444,28.266059027777775,0)" xlink:href="#L"/><use transform="matrix(0.010850694444444444,0,0,0.010850694444444444,41.22178819444444,0)" xlink:href="#D"/></g><path d="M783 20c-382 0-661-292-661-764 0-473 279-766 661-766 302 0 548 182 601 489h-190c-42-204-217-313-411-313-268 0-476 208-476 590 0 381 209 588 476 588 195 0 369-110 411-313h190c-52 303-296 489-601 489" id="U"/><path d="M678-1118v154H420V0H240v-964H20v-154h220v-149c0-194 155-293 318-293 85 0 141 18 168 30l-50 154c-19-6-47-17-97-17-111 0-159 58-159 166v109h258" id="V"/><g id="i"><use transform="matrix(0.008680555555555556,0,0,0.008680555555555556,0,0)" xlink:href="#U"/><use transform="matrix(0.008680555555555556,0,0,0.008680555555555556,12.986111111111112,0)" xlink:href="#D"/><use transform="matrix(0.008680555555555556,0,0,0.008680555555555556,19.678819444444446,0)" xlink:href="#E"/><use transform="matrix(0.008680555555555556,0,0,0.008680555555555556,29.661458333333336,0)" xlink:href="#V"/><use transform="matrix(0.008680555555555556,0,0,0.008680555555555556,35.63368055555556,0)" xlink:href="#A"/></g><path d="M98-1322v-168h1126v168H757V0H567v-1322H98" id="W"/><g id="j"><use transform="matrix(0.008680555555555556,0,0,0.008680555555555556,0,0)" xlink:href="#G"/><use transform="matrix(0.008680555555555556,0,0,0.008680555555555556,10.625,0)" xlink:href="#W"/><use transform="matrix(0.008680555555555556,0,0,0.008680555555555556,21.571180555555557,0)" xlink:href="#U"/></g><g id="k"><use transform="matrix(0.008680555555555556,0,0,0.008680555555555556,0,0)" xlink:href="#A"/><use transform="matrix(0.008680555555555556,0,0,0.008680555555555556,5.815972222222222,0)" xlink:href="#D"/><use transform="matrix(0.008680555555555556,0,0,0.008680555555555556,12.508680555555559,0)" xlink:href="#E"/><use transform="matrix(0.008680555555555556,0,0,0.008680555555555556,22.491319444444446,0)" xlink:href="#J"/><use transform="matrix(0.008680555555555556,0,0,0.008680555555555556,32.99479166666667,0)" xlink:href="#O"/><use transform="matrix(0.008680555555555556,0,0,0.008680555555555556,42.37847222222223,0)" xlink:href="#E"/><use transform="matrix(0.008680555555555556,0,0,0.008680555555555556,52.361111111111114,0)" xlink:href="#H"/><use transform="matrix(0.008680555555555556,0,0,0.008680555555555556,62.517361111111114,0)" xlink:href="#A"/><use transform="matrix(0.008680555555555556,0,0,0.008680555555555556,68.33333333333334,0)" xlink:href="#z"/><use transform="matrix(0.008680555555555556,0,0,0.008680555555555556,72.63888888888889,0)" xlink:href="#I"/><use transform="matrix(0.008680555555555556,0,0,0.008680555555555556,83.29861111111113,0)" xlink:href="#J"/></g><g id="l"><use transform="matrix(0.008680555555555556,0,0,0.008680555555555556,0,0)" xlink:href="#E"/><use transform="matrix(0.008680555555555556,0,0,0.008680555555555556,9.98263888888889,0)" xlink:href="#J"/><use transform="matrix(0.008680555555555556,0,0,0.008680555555555556,20.486111111111114,0)" xlink:href="#C"/></g><g id="m"><use transform="matrix(0.008680555555555556,0,0,0.008680555555555556,0,0)" xlink:href="#N"/><use transform="matrix(0.008680555555555556,0,0,0.008680555555555556,10.512152777777779,0)" xlink:href="#O"/><use transform="matrix(0.008680555555555556,0,0,0.008680555555555556,19.895833333333336,0)" xlink:href="#L"/></g><path d="M180 0v-1490h270l367 940c28 72 75 218 110 339 35-117 81-264 110-339l362-940h271V0h-187c2-448-5-837 7-1287-157 497-311 829-483 1287H842C666-458 514-784 354-1284c12 438 5 843 7 1284H180" id="X"/><path d="M180 0v-1490h510c348 0 508 209 508 474 0 266-160 477-507 477H370V0H180zm190-706h312c236 0 327-133 327-310 0-176-91-307-329-307H370v617" id="Y"/><g id="n"><use transform="matrix(0.008680555555555556,0,0,0.008680555555555556,0,0)" xlink:href="#X"/><use transform="matrix(0.008680555555555556,0,0,0.008680555555555556,16.05902777777778,0)" xlink:href="#Y"/><use transform="matrix(0.008680555555555556,0,0,0.008680555555555556,27.413194444444446,0)" xlink:href="#U"/></g><g id="o"><use transform="matrix(0.008680555555555556,0,0,0.008680555555555556,0,0)" xlink:href="#A"/><use transform="matrix(0.008680555555555556,0,0,0.008680555555555556,5.642361111111112,0)" xlink:href="#I"/></g><path d="M158 0v-1118h175l1 205c55-151 181-225 313-225 147 0 245 90 285 228 53-141 190-228 352-228 194 0 352 125 352 384V0h-181v-749c0-161-105-225-225-225-151 0-243 103-243 244V0H807v-767c0-124-93-207-219-207-131 0-250 92-250 270V0H158" id="Z"/><g id="p"><use transform="matrix(0.008680555555555556,0,0,0.008680555555555556,0,0)" xlink:href="#V"/><use transform="matrix(0.008680555555555556,0,0,0.008680555555555556,6.0590277777777795,0)" xlink:href="#I"/><use transform="matrix(0.008680555555555556,0,0,0.008680555555555556,16.71875,0)" xlink:href="#D"/><use transform="matrix(0.008680555555555556,0,0,0.008680555555555556,23.689236111111118,0)" xlink:href="#Z"/></g><path d="M611 442c-248 0-391-105-460-228l146-94c47 65 117 165 314 165 178 0 307-82 307-266v-224h-17C863-141 792-18 576-18c-268 0-472-195-472-546 0-346 197-568 476-568 216 0 288 133 326 193h17v-179h175V29c0 289-215 413-487 413zm-5-620c203 0 314-146 314-390 0-237-108-403-314-403-213 0-319 180-319 403 0 230 109 390 319 390" id="aa"/><g id="q"><use transform="matrix(0.008680555555555556,0,0,0.008680555555555556,0,0)" xlink:href="#O"/><use transform="matrix(0.008680555555555556,0,0,0.008680555555555556,9.383680555555555,0)" xlink:href="#z"/><use transform="matrix(0.008680555555555556,0,0,0.008680555555555556,13.689236111111109,0)" xlink:href="#aa"/><use transform="matrix(0.008680555555555556,0,0,0.008680555555555556,24.59201388888889,0)" xlink:href="#J"/><use transform="matrix(0.008680555555555556,0,0,0.008680555555555556,35.095486111111114,0)" xlink:href="#E"/><use transform="matrix(0.008680555555555556,0,0,0.008680555555555556,45.078125,0)" xlink:href="#A"/><use transform="matrix(0.008680555555555556,0,0,0.008680555555555556,50.89409722222222,0)" xlink:href="#N"/><use transform="matrix(0.008680555555555556,0,0,0.008680555555555556,61.40625,0)" xlink:href="#D"/><use transform="matrix(0.008680555555555556,0,0,0.008680555555555556,67.80381944444444,0)" xlink:href="#L"/></g><path d="M449 0L49-1490h333c89 395 194 758 253 1185 65-426 176-790 269-1185h317c93 394 201 758 268 1181 60-425 164-788 253-1181h334L1675 0h-348c-90-376-204-711-266-1118C1004-714 886-373 798 0H449" id="ab"/><path d="M128 0v-1118h300V0H128zm150-1264c-91 0-165-68-165-154 0-85 74-154 165-154 90 0 165 69 165 154 0 86-75 154-165 154" id="ac"/><path d="M683-1118v229H474v562c0 71 29 104 102 104 23 0 73-7 95-13l43 225C647 9 580 16 520 16 296 16 174-96 174-301v-588H20v-229h154v-266h300v266h209" id="ad"/><path d="M428-647V0H128v-1490h294v586c65-146 175-228 341-228 232 0 385 159 385 421V0H847v-659c0-139-76-222-202-222-128 0-217 86-217 234" id="ae"/><path d="M537 19C279 19 81-185 81-557c0-382 206-575 454-575 190 0 278 113 318 202h10v-560h300V0H868v-179h-15C812-89 719 19 537 19zm92-241c153 0 240-134 240-336 0-203-86-334-240-334-158 0-240 138-240 334 0 197 84 336 240 336" id="af"/><path d="M128 0v-1118h290v195h12c54-169 184-238 367-200v268c-27-8-86-15-130-15-138 0-239 95-239 234V0H128" id="ag"/><path d="M440 22C227 22 68-92 68-313c0-250 202-322 422-343 195-21 271-24 271-105 0-95-63-149-175-149-116 0-187 57-211 129l-275-46c57-194 237-305 487-305 240 0 474 108 474 379V0H777v-155h-10C713-51 605 22 440 22zm85-211c140 0 238-93 238-211v-121c-37 26-156 42-222 51-111 16-185 59-185 149 0 87 70 132 169 132" id="ah"/><path d="M361 0L31-1118h315c68 295 127 523 188 845 63-317 128-551 199-845h276c71 296 131 525 196 846 57-321 119-552 186-846h319L1378 0h-305c-73-261-148-486-204-771C813-484 740-261 666 0H361" id="ai"/><path d="M428-1490V0H128v-1490h300" id="aj"/><g id="r"><use transform="matrix(0.013020833333333334,0,0,0.013020833333333334,0,0)" xlink:href="#ab"/><use transform="matrix(0.013020833333333334,0,0,0.013020833333333334,27.669270833333336,0)" xlink:href="#ac"/><use transform="matrix(0.013020833333333334,0,0,0.013020833333333334,34.895833333333336,0)" xlink:href="#ad"/><use transform="matrix(0.013020833333333334,0,0,0.013020833333333334,44.7265625,0)" xlink:href="#ae"/><use transform="matrix(0.013020833333333334,0,0,0.013020833333333334,61.328125,0)" xlink:href="#af"/><use transform="matrix(0.013020833333333334,0,0,0.013020833333333334,78.13802083333334,0)" xlink:href="#ag"/><use transform="matrix(0.013020833333333334,0,0,0.013020833333333334,88.63281250000001,0)" xlink:href="#ah"/><use transform="matrix(0.013020833333333334,0,0,0.013020833333333334,104.11458333333334,0)" xlink:href="#ai"/><use transform="matrix(0.013020833333333334,0,0,0.013020833333333334,126.71875,0)" xlink:href="#ah"/><use transform="matrix(0.013020833333333334,0,0,0.013020833333333334,142.20052083333334,0)" xlink:href="#aj"/></g><path d="M135 0v-1490h980v253H440v416h609v249H440V0H135" id="ak"/><path d="M628 22C291 22 81-210 81-554c0-346 210-578 547-578 336 0 547 232 547 578 0 344-211 576-547 576zm0-236c160 0 242-146 242-341 0-197-82-341-242-341S387-753 387-555c0 195 81 341 241 341" id="al"/><g id="s"><use transform="matrix(0.013020833333333334,0,0,0.013020833333333334,0,0)" xlink:href="#ak"/><use transform="matrix(0.013020833333333334,0,0,0.013020833333333334,15.651041666666668,0)" xlink:href="#aj"/><use transform="matrix(0.013020833333333334,0,0,0.013020833333333334,22.877604166666668,0)" xlink:href="#al"/><use transform="matrix(0.013020833333333334,0,0,0.013020833333333334,38.8671875,0)" xlink:href="#ai"/></g><path d="M653-1490V0H466v-1314h-10L96-1047v-204l324-239h233" id="am"/><use transform="matrix(0.009765625,0,0,0.009765625,0,0)" xlink:href="#am" id="t"/><path d="M154 0v-137l495-537c165-179 249-281 249-418 0-156-121-253-280-253-170 0-278 110-278 278H158c0-264 200-443 465-443 266 0 455 183 455 416 0 161-73 288-336 568L416-179v12h687V0H154" id="an"/><use transform="matrix(0.009765625,0,0,0.009765625,0,0)" xlink:href="#an" id="u"/><path d="M635 20c-292 0-500-160-510-396h192c11 142 145 229 315 229 187 0 323-105 323-260 0-161-125-274-346-274H488v-165h121c174 0 294-100 294-254 0-148-104-245-266-245-152 0-291 85-297 230H157c8-234 222-395 484-395 278 0 448 188 448 400 0 168-95 291-247 336v12c190 31 301 169 301 357 0 244-216 425-508 425" id="ao"/><use transform="matrix(0.009765625,0,0,0.009765625,0,0)" xlink:href="#ao" id="v"/><g id="w"><use transform="matrix(0.008680555555555556,0,0,0.008680555555555556,0,0)" xlink:href="#G"/><use transform="matrix(0.008680555555555556,0,0,0.008680555555555556,11.631944444444445,0)" xlink:href="#D"/><use transform="matrix(0.008680555555555556,0,0,0.008680555555555556,18.02951388888889,0)" xlink:href="#I"/><use transform="matrix(0.008680555555555556,0,0,0.008680555555555556,28.862847222222218,0)" xlink:href="#E"/><use transform="matrix(0.008680555555555556,0,0,0.008680555555555556,38.845486111111114,0)" xlink:href="#C"/><use transform="matrix(0.008680555555555556,0,0,0.008680555555555556,49.730902777777786,0)" xlink:href="#H"/><use transform="matrix(0.008680555555555556,0,0,0.008680555555555556,60.0607638888889,0)" xlink:href="#E"/><use transform="matrix(0.008680555555555556,0,0,0.008680555555555556,70.04340277777779,0)" xlink:href="#O"/><use transform="matrix(0.008680555555555556,0,0,0.008680555555555556,79.42708333333334,0)" xlink:href="#A"/></g><g id="x"><use transform="matrix(0.008680555555555556,0,0,0.008680555555555556,0,0)" xlink:href="#W"/><use transform="matrix(0.008680555555555556,0,0,0.008680555555555556,10.46875,0)" xlink:href="#D"/><use transform="matrix(0.008680555555555556,0,0,0.008680555555555556,17.161458333333336,0)" xlink:href="#E"/><use transform="matrix(0.008680555555555556,0,0,0.008680555555555556,27.144097222222225,0)" xlink:href="#J"/><use transform="matrix(0.008680555555555556,0,0,0.008680555555555556,37.64756944444444,0)" xlink:href="#O"/><use transform="matrix(0.008680555555555556,0,0,0.008680555555555556,47.03125000000001,0)" xlink:href="#E"/><use transform="matrix(0.008680555555555556,0,0,0.008680555555555556,57.0138888888889,0)" xlink:href="#H"/><use transform="matrix(0.008680555555555556,0,0,0.008680555555555556,67.1701388888889,0)" xlink:href="#A"/><use transform="matrix(0.008680555555555556,0,0,0.008680555555555556,72.98611111111113,0)" xlink:href="#z"/><use transform="matrix(0.008680555555555556,0,0,0.008680555555555556,77.29166666666669,0)" xlink:href="#I"/><use transform="matrix(0.008680555555555556,0,0,0.008680555555555556,87.95138888888891,0)" xlink:href="#J"/></g></defs></g></svg>